<?xml version="1.0" encoding="utf-8"?>
<!-- Generator: Adobe Illustrator 21.0.2, SVG Export Plug-In . SVG Version: 6.00 Build 0)  -->
<svg version="1.1" id="Layer_1" xmlns="http://www.w3.org/2000/svg" xmlns:xlink="http://www.w3.org/1999/xlink" x="0px" y="0px"
	 width="79px" height="79px" viewBox="0 0 79 79" style="enable-background:new 0 0 79 79;" xml:space="preserve">
<style type="text/css">
	.st0{fill:#95A5A6;}
</style>
<g id="header_icons">
</g>
<path class="st0" d="M39.3,2.5C18.7,2.5,2,19.2,2,39.8c0,20.6,16.7,37.3,37.3,37.3c20.6,0,37.3-16.7,37.3-37.3
	C76.6,19.2,59.9,2.5,39.3,2.5z M39.3,75.4c-10.9,0-20.6-4.9-27.2-12.6c0.1-11.4,3.4-18.9,17.9-18.9h17.7c14.4,0,17.8,7.9,17.9,19.8
	C59.2,70.9,49.8,75.4,39.3,75.4z M47.8,42.2h-5.1c5.8-1.7,10.2-7.3,10.2-13.9c0-8-6.2-14.4-13.7-14.4c-7.6,0-13.7,6.5-13.7,14.4
	c0,6.7,4.3,12.3,10.2,13.9h-5.4c-15.7,0-19.1,8.6-19.6,18.5c-4.3-5.9-6.8-13.1-6.8-20.9c0-19.6,16-35.6,35.6-35.6
	c19.6,0,35.6,16,35.6,35.6c0,8.3-2.8,15.9-7.6,22C66.9,51.2,63.5,42.2,47.8,42.2z M39,41C32.4,41,27,35.3,27,28.3
	c0-7,5.4-12.7,12.1-12.7c6.6,0,12.1,5.7,12.1,12.7C51.1,35.3,45.7,41,39,41z"/>
</svg>
